Coordinates
version=1
nRows=21
nColumns=34
inDegrees=no

Units are S.I. units (second, meters, Newtons, ...)
If the header above contains a line with 'inDegrees', this indicates whether rotational values are in degrees (yes) or radians (no).

endheader
time	pelvis_tilt	pelvis_list	pelvis_rotation	pelvis_tx	pelvis_ty	pelvis_tz	hip_flexion_r	hip_adduction_r	hip_rotation_r	knee_angle_r	ankle_angle_r	subtalar_angle_r	mtp_angle_r	hip_flexion_l	hip_adduction_l	hip_rotation_l	knee_angle_l	ankle_angle_l	subtalar_angle_l	mtp_angle_l	lumbar_extension	lumbar_bending	lumbar_rotation	arm_flex_r	arm_add_r	arm_rot_r	elbow_flex_r	pro_sup_r	arm_flex_l	arm_add_l	arm_rot_l	elbow_flex_l	pro_sup_l
0.77	0.0704282	0.0804169	-0.11965	0.685239	0.912858	-0.252677	-0.206187	-0.215433	-0.147238	0.691815	-0.0137214	0.162999	0.00759144	0.328762	0.0902178	-0.0216598	0.320839	0.0131428	-0.108498	0.0075809	-0.445038	-0.290801	-0.0995232	0.0739511	-0.251316	0.318735	0.785226	2.12526	0.206826	-0.242348	-0.277849	0.600843	2.11812
0.78	0.0596812	0.0885145	-0.126994	0.695028	0.913574	-0.252236	-0.153453	-0.228662	-0.120421	0.760436	-0.0478085	0.128633	0.00759638	0.331119	0.0973743	-0.0254185	0.323403	0.0207733	-0.116375	0.00758591	-0.437888	-0.311502	-0.0978034	0.0672891	-0.264059	0.362143	0.779117	2.13061	0.218593	-0.239004	-0.277656	0.605336	2.12515
0.79	0.0478772	0.0953462	-0.136367	0.704514	0.914101	-0.25171	-0.0966232	-0.239465	-0.0917721	0.829638	-0.0739996	0.0975687	0.00760131	0.334529	0.102324	-0.0308376	0.325203	0.0285532	-0.123947	0.00759091	-0.42882	-0.330429	-0.0943909	0.0628446	-0.278097	0.408179	0.775538	2.13606	0.228919	-0.235403	-0.278083	0.612081	2.13209
0.8	0.035725	0.101213	-0.147249	0.713728	0.914457	-0.251118	-0.0375565	-0.24785	-0.0622777	0.897663	-0.0913674	0.0699786	0.00760625	0.338368	0.105575	-0.037724	0.326577	0.0365534	-0.130996	0.0075959	-0.418567	-0.347837	-0.0899056	0.0600173	-0.292443	0.453816	0.774253	2.14144	0.23782	-0.231828	-0.278758	0.62081	2.13849
0.81	0.0238755	0.106351	-0.158955	0.722724	0.914718	-0.25048	0.0218861	-0.253865	-0.0330676	0.962866	-0.0997434	0.0455328	0.00761119	0.341957	0.107631	-0.0457044	0.327698	0.0448809	-0.137183	0.0076009	-0.407918	-0.363912	-0.0850121	0.0580643	-0.306072	0.495834	0.774761	2.1465	0.245429	-0.228529	-0.279291	0.631168	2.14401
0.82	0.0128554	0.110913	-0.17068	0.731562	0.914957	-0.249821	0.0800044	-0.257627	-0.00533629	1.02383	-0.0997427	0.0234831	0.00761613	0.344647	0.10896	-0.0542495	0.328589	0.0536276	-0.142123	0.0076059	-0.39764	-0.378748	-0.080386	0.0561989	-0.318026	0.531184	0.776375	2.15099	0.251953	-0.225704	-0.279326	0.642759	2.14842
0.83	0.00303197	0.114965	-0.181584	0.740299	0.915237	-0.24917	0.135379	-0.259336	0.0197553	1.07942	-0.0926524	0.00284353	0.00762106	0.34589	0.109959	-0.0627202	0.329154	0.0628314	-0.145459	0.0076109	-0.388408	-0.392353	-0.0766771	0.0536981	-0.327521	0.557326	0.778336	2.15458	0.257635	-0.223485	-0.278579	0.655202	2.15163
0.84	-0.00539045	0.118505	-0.190869	0.748987	0.915608	-0.248555	0.186942	-0.25928	0.0411841	1.12883	-0.0802079	-0.0173705	0.007626	0.345277	0.110948	-0.0704284	0.329223	0.0724554	-0.146942	0.0076159	-0.380764	-0.404656	-0.0744713	0.0499987	-0.334016	0.572505	0.779935	2.15702	0.262706	-0.221939	-0.276863	0.668168	2.15362
0.85	-0.0123512	0.121482	-0.197868	0.757672	0.916102	-0.248006	0.234	-0.257812	0.0581582	1.17156	-0.0643077	-0.0378969	0.00763094	0.342558	0.11215	-0.0767049	0.328608	0.0823854	-0.146484	0.0076209	-0.375091	-0.415545	-0.0742511	0.0447677	-0.337259	0.575926	0.780625	2.1581	0.26736	-0.221076	-0.274088	0.681397	2.1545
0.86	-0.017906	0.123829	-0.202106	0.766385	0.916736	-0.247547	0.276227	-0.255323	0.0701859	1.20741	-0.0467302	-0.0590317	0.00763588	0.337644	0.113696	-0.080968	0.327144	0.0924427	-0.144178	0.0076259	-0.371592	-0.424892	-0.0763605	0.037936	-0.337293	0.567819	0.780089	2.15769	0.271734	-0.220866	-0.27026	0.694705	2.1544
0.87	-0.0221974	0.125482	-0.20334	0.775148	0.917507	-0.247196	0.31363	-0.252197	0.0771126	1.23638	-0.0289103	-0.0805261	0.00764081	0.330598	0.115628	-0.082784	0.32473	0.102407	-0.140291	0.0076309	-0.370296	-0.432598	-0.0809764	0.0296903	-0.334431	0.549386	0.778269	2.15579	0.275906	-0.221256	-0.265457	0.707972	2.15348
0.88	-0.0254252	0.126407	-0.201573	0.783969	0.918401	-0.246964	0.34649	-0.24877	0.0791176	1.25867	-0.011813	-0.101601	0.00764575	0.321616	0.11791	-0.0819116	0.321344	0.112045	-0.135218	0.0076359	-0.371063	-0.438621	-0.0880929	0.0204276	-0.329202	0.52264	0.775335	2.15247	0.279906	-0.222185	-0.25981	0.721124	2.15196
0.89	-0.02782	0.126614	-0.19704	0.792842	0.91939	-0.246848	0.375291	-0.245302	0.0766761	1.27458	0.00408377	-0.121071	0.00765068	0.310994	0.12045	-0.0783236	0.317041	0.12114	-0.129424	0.0076409	-0.373608	-0.442999	-0.0975219	0.0106825	-0.322278	0.490159	0.771626	2.14787	0.283722	-0.22359	-0.253481	0.734112	2.15
0.9	-0.0296191	0.126159	-0.190167	0.801752	0.920442	-0.246836	0.400643	-0.24195	0.0704937	1.28448	0.0187109	-0.137562	0.00765562	0.299089	0.12312	-0.0722069	0.311937	0.129519	-0.123373	0.00764589	-0.377535	-0.445861	-0.108908	0.00104087	-0.314391	0.45479	0.76756	2.14217	0.287328	-0.22542	-0.246634	0.746891	2.14781
0.91	-0.0310469	0.125144	-0.181514	0.810681	0.921519	-0.246903	0.423195	-0.238768	0.0614241	1.28878	0.0322677	-0.149758	0.00766056	0.286271	0.125777	-0.0639418	0.306178	0.137079	-0.117462	0.00765089	-0.382377	-0.447417	-0.12176	-0.00794472	-0.306249	0.419332	0.763549	2.13558	0.290691	-0.227623	-0.239417	0.759397	2.14553
0.92	-0.0322955	0.123696	-0.171715	0.819608	0.922587	-0.247015	0.443561	-0.235709	0.0503805	1.28785	0.0450617	-0.156648	0.00766549	0.272882	0.128277	-0.0540599	0.299912	0.143798	-0.111969	0.00765589	-0.387652	-0.447941	-0.135489	-0.0158248	-0.298469	0.386242	0.759934	2.12833	0.293793	-0.230153	-0.231941	0.77154	2.14333
0.93	-0.0335092	0.121948	-0.161411	0.828519	0.923614	-0.247134	0.462253	-0.232639	0.038252	1.28201	0.0573697	-0.157711	0.00767042	0.259194	0.13049	-0.0431889	0.293269	0.149746	-0.107021	0.00766088	-0.39291	-0.447729	-0.149464	-0.0222974	-0.291521	0.357416	0.756936	2.12068	0.296631	-0.232952	-0.224278	0.783195	2.14129
0.94	-0.0347719	0.12001	-0.151193	0.837403	0.924575	-0.247224	0.479632	-0.229358	0.0258357	1.27154	0.0693489	-0.153003	0.00767536	0.245383	0.132297	-0.0319874	0.286343	0.155077	-0.1026	0.00766588	-0.39778	-0.447063	-0.163057	-0.0272239	-0.285707	0.334051	0.754652	2.11293	0.299227	-0.235951	-0.216455	0.794206	2.13949
0.95	-0.0361015	0.117957	-0.141559	0.84626	0.925452	-0.247248	0.495887	-0.225623	0.0137888	1.25666	0.0810088	-0.143144	0.00768029	0.231518	0.133595	-0.0210802	0.279196	0.160015	-0.0985626	0.00767087	-0.402005	-0.44617	-0.175695	-0.0306182	-0.281152	0.316614	0.753063	2.10542	0.301618	-0.239068	-0.208471	0.804398	2.13796
0.96	-0.0374537	0.115815	-0.132883	0.855096	0.926235	-0.24718	0.511034	-0.221178	0.00260539	1.23753	0.0922369	-0.1292	0.00768523	0.217572	0.134293	-0.0110017	0.271862	0.164821	-0.0946839	0.00767587	-0.405453	-0.445197	-0.186898	-0.0326161	-0.277833	0.304914	0.752062	2.09853	0.303858	-0.242204	-0.200312	0.813594	2.13671
0.97	-0.0387379	0.113565	-0.125406	0.863918	0.926921	-0.247001	0.524953	-0.215781	-0.00738437	1.21426	0.102855	-0.112498	0.00769016	0.203446	0.134319	-0.00215216	0.264361	0.169766	-0.0907128	0.00768086	-0.408119	-0.444203	-0.196312	-0.0334331	-0.275606	0.298238	0.751489	2.0926	0.306001	-0.245257	-0.191977	0.821636	2.13575
